<svg width="36" height="29" viewBox="0 0 36 29" fill="none" xmlns="http://www.w3.org/2000/svg">
<g clip-path="url(#clip0_66_113)">
<path fill-rule="evenodd" clip-rule="evenodd" d="M18.1031 28.6968C17.9708 28.5262 17.8764 28.4125 17.7933 28.2912C15.4848 24.9706 13.1802 21.6443 10.8623 18.3314C10.6526 18.0319 10.6167 17.7931 10.7584 17.4538C13.1405 11.7603 15.5113 6.06307 17.8839 0.365793C17.9349 0.244494 17.9916 0.126985 18.0502 0C18.3675 0.358212 24.3861 14.6848 25.4742 17.6642C23.0373 21.3127 20.5834 24.9858 18.1031 28.6968Z" fill="#B4B4B4"/>
<path fill-rule="evenodd" clip-rule="evenodd" d="M36.0002 23.2496C31.2869 25.1866 26.6493 27.0933 22.0078 28.9999C21.9852 28.9677 21.9606 28.9374 21.936 28.9052C26.2431 22.5351 30.5502 16.1631 34.8592 9.79297C34.9026 9.80055 34.9442 9.80813 34.9876 9.81571C35.3371 14.2773 35.6601 18.7426 36.0002 23.2496Z" fill="#B4B4B4"/>
<path fill-rule="evenodd" clip-rule="evenodd" d="M-6.40556e-05 23.2473C0.33619 18.7517 0.668667 14.2844 1.00303 9.81531C1.04648 9.80394 1.08993 9.79256 1.13338 9.7793C5.44046 16.1532 9.74942 22.5252 14.0565 28.8972C14.0357 28.9294 14.0149 28.9635 13.9942 28.9958C9.34139 27.0967 4.69616 25.1786 -0.00195312 23.2473H-6.40556e-05Z" fill="#B4B4B4"/>
</g>
<defs>
<clipPath id="clip0_66_113">
<rect width="36" height="29" fill="white"/>
</clipPath>
</defs>
</svg>
