<svg width="302" height="95" viewBox="0 0 302 95" fill="none" xmlns="http://www.w3.org/2000/svg">
<g clip-path="url(#clip0_79_25)">
<mask id="mask0_79_25" style="mask-type:luminance" maskUnits="userSpaceOnUse" x="0" y="0" width="73" height="95">
<path d="M24.9338 60.7122C21.6811 60.7122 19.0363 63.3546 19.0363 66.6151C19.0363 69.8755 21.6811 72.5179 24.9338 72.5179C28.1865 72.5179 30.8313 69.8755 30.8313 66.6151C30.8313 63.3546 28.1865 60.7122 24.9338 60.7122ZM53.8242 28.3849C53.8242 29.0882 53.8989 29.7914 54.0588 30.452C54.5174 32.4871 53.9522 34.4583 52.4698 35.9393L51.6273 36.7811C50.1556 38.2621 48.1826 38.8268 46.1457 38.3687C45.4845 38.2195 44.7806 38.1343 44.0661 38.1343C38.8938 38.1343 34.7026 42.3217 34.7026 47.4893C34.7026 52.657 38.8938 56.8551 44.0661 56.8551C44.7806 56.8551 45.4738 56.7805 46.1457 56.6207C48.1826 56.1625 50.1556 56.7379 51.6273 58.2083L52.3738 58.9541C53.8562 60.4352 54.4321 62.3957 53.9629 64.4414C53.8135 65.1021 53.7282 65.8053 53.7282 66.5085C53.7282 67.2117 53.8135 67.915 53.9629 68.5862C54.4214 70.6214 53.8562 72.5925 52.3738 74.0629L51.5313 74.9153C50.0596 76.3857 48.0867 76.9611 46.0497 76.5029C45.3885 76.3537 44.6847 76.2685 43.9701 76.2685C38.7978 76.2685 34.6066 80.4666 34.6066 85.6342C34.6066 90.8019 38.7978 94.9893 43.9701 94.9893C49.1425 94.9893 53.3443 90.8019 53.3443 85.6342C53.3443 84.9204 53.2697 84.2278 53.1097 83.5565C52.6511 81.5214 53.2163 79.5609 54.6987 78.0798L55.5412 77.2275C57.0236 75.7571 58.9859 75.1817 61.0228 75.6399C61.684 75.789 62.3879 75.8743 63.1024 75.8743C68.2747 75.8743 72.4766 71.6868 72.4766 66.5085C72.4766 61.3302 68.2747 57.1534 63.1024 57.1534C62.3985 57.1534 61.6947 57.228 61.0228 57.3878C58.9859 57.846 57.0129 57.2706 55.5412 55.8002L54.7947 55.0544C53.323 53.584 52.7471 51.6128 53.2163 49.5777C53.3656 48.9171 53.4403 48.2139 53.4403 47.5C53.4403 46.7861 53.355 46.1042 53.2163 45.4329C52.7578 43.3978 53.323 41.4266 54.8054 39.9456L55.6372 39.1039C57.1196 37.6228 59.0819 37.0581 61.1295 37.5163C61.7907 37.6654 62.4945 37.74 63.2091 37.74C68.3814 37.74 72.5726 33.5526 72.5726 28.3849C72.5726 23.2172 68.3814 19.0192 63.2091 19.0192C62.4945 19.0192 61.8013 19.1044 61.1295 19.2536C59.0925 19.7118 57.1196 19.1364 55.6372 17.666L54.8907 16.9201C53.4083 15.4391 52.8431 13.4679 53.3016 11.4435C53.451 10.7829 53.5256 10.0796 53.5256 9.36575C53.5256 4.19807 49.3344 0 44.1621 0C38.9898 0 34.7879 4.19807 34.7879 9.36575C34.7879 14.5334 38.9898 18.7315 44.1621 18.7315C44.8766 18.7315 45.5698 18.6463 46.231 18.4971C48.268 18.0389 50.2409 18.6143 51.7233 20.0847L52.4698 20.8305C53.9522 22.3116 54.5174 24.2827 54.0588 26.3072C53.8989 26.9678 53.8242 27.671 53.8242 28.3849ZM5.89752 41.693C2.63416 41.693 0 44.3355 0 47.5959C0 50.8563 2.64482 53.4988 5.89752 53.4988C9.15022 53.4988 11.8057 50.8563 11.8057 47.5959C11.8057 44.3355 9.16089 41.7037 5.89752 41.693ZM25.0298 22.5779C21.7664 22.5779 19.1323 25.2204 19.1323 28.4808C19.1323 31.7412 21.7664 34.373 25.0298 34.373C28.2932 34.373 30.9273 31.7412 30.9273 28.4808C30.9273 25.2204 28.2825 22.5779 25.0298 22.5779Z" fill="white"/>
</mask>
<g mask="url(#mask0_79_25)">
<path d="M88.1429 0H0V95H88.1429V0Z" fill="url(#paint0_linear_79_25)"/>
</g>
<path d="M86.0954 24.6024H104.406C117.961 24.6024 123.166 29.5783 123.166 36.6106C123.166 40.6382 121.63 45.0281 117.449 46.2747C121.843 47.7344 124.627 52.6464 124.627 57.1854C124.627 64.7931 119.934 71.4631 104.769 71.4631H86.0847V24.6024H86.0954ZM104.481 43.1954C110.411 43.1954 111.509 41.1496 111.509 38.5818C111.509 36.0139 110.699 34.1173 104.62 34.1173H97.9544V43.1954H104.47H104.481ZM104.993 61.9375C111.37 61.9375 112.544 59.5189 112.544 56.7379C112.544 53.8078 111.594 51.6874 105.217 51.6874H97.9651V61.9375H104.993Z" fill="#1D2039"/>
<path d="M130.631 19.7011H142.063V71.4525H130.631V19.7011Z" fill="#1D2039"/>
<path d="M149.091 55.2036V34.128H160.524V55.5765C160.524 60.627 161.547 62.7473 166.752 62.7473C171.956 62.7473 173.268 60.4032 173.268 55.2782V34.128H184.775V71.4525H179.57L176.936 66.5512C174.889 69.4813 171.071 72.1131 163.744 72.1131C151.363 72.1131 149.091 65.1554 149.091 55.2036Z" fill="#1D2039"/>
<path d="M188.571 24.6024H201.102L209.165 59.2205L218.176 24.6024H231.507L240.444 59.2205L248.57 24.6024H260.653L247.099 71.4418H233.469L224.532 38.2089L215.67 71.4418H202.115L188.561 24.6024H188.571Z" fill="#1D2039"/>
<path d="M265.421 24.6024H277.29V71.4418H265.421V24.6024Z" fill="#1D2039"/>
<path d="M294.375 73.1679C298.586 73.1679 302 69.7571 302 65.5496C302 61.3421 298.586 57.9313 294.375 57.9313C290.164 57.9313 286.75 61.3421 286.75 65.5496C286.75 69.7571 290.164 73.1679 294.375 73.1679Z" fill="url(#paint1_linear_79_25)"/>
</g>
<defs>
<linearGradient id="paint0_linear_79_25" x1="4.32983" y1="87.2005" x2="76.2404" y2="15.2252" gradientUnits="userSpaceOnUse">
<stop stop-color="#51E0BA"/>
<stop offset="0.52" stop-color="#4CE7E9"/>
<stop offset="1" stop-color="#3CACFA"/>
</linearGradient>
<linearGradient id="paint1_linear_79_25" x1="286.75" y1="65.5496" x2="302" y2="65.5496" gradientUnits="userSpaceOnUse">
<stop stop-color="#4DDDB6"/>
<stop offset="0.52" stop-color="#44E4E6"/>
<stop offset="1" stop-color="#3EA4EB"/>
</linearGradient>
<clipPath id="clip0_79_25">
<rect width="302" height="95" fill="white"/>
</clipPath>
</defs>
</svg>
