<svg width="133" height="57" viewBox="0 0 133 57" fill="none" xmlns="http://www.w3.org/2000/svg">
<g clip-path="url(#clip0_2192_967)">
<path d="M113.698 46.4078H42.0393C39.6209 46.4078 37.8531 44.4821 38.4436 42.4779C39.7149 38.2563 44.1794 35.3022 49.2947 35.3022H120.859C122.687 35.3022 124.022 36.9363 123.526 38.6003L123.217 39.6286C122.04 43.6408 118.162 46.4116 113.698 46.4116V46.4078Z" fill="url(#paint0_linear_2192_967)"/>
<path d="M48.2378 56.0437H42.6975C42.6336 56.0437 42.6035 56.0288 42.6035 55.9802C42.6035 55.9652 43.2881 54.4321 44.6722 51.3547C44.7023 51.2911 44.7512 51.2612 44.8452 51.2612H50.3855C50.8067 51.2612 51.149 51.3697 51.3972 51.5716C51.6605 51.7885 51.8034 52.1138 51.8034 52.5139C51.8034 52.8542 51.7094 53.2393 51.5251 53.6431C51.228 54.3087 50.7954 54.8509 50.22 55.2996C49.5806 55.7932 48.9299 56.0437 48.2453 56.0437H48.2378ZM48.9675 52.4541C48.9675 52.2073 48.7945 52.0988 48.4371 52.0988H47.0982L45.699 55.2248H47.038C47.3652 55.2248 47.6435 55.0865 47.8955 54.8061C48.0497 54.6191 48.2228 54.3424 48.392 53.9535L48.7343 53.1944C48.8885 52.8392 48.9675 52.5924 48.9675 52.4503V52.4541Z" fill="white"/>
<path d="M57.6517 56.0439H52.905C52.4838 56.0439 52.1415 55.9355 51.8933 55.7336C51.63 55.5017 51.5059 55.1914 51.5059 54.7763C51.5059 54.436 51.5999 54.0658 51.7842 53.662C52.0964 52.9964 52.5139 52.4393 53.0893 51.9905C53.7099 51.5119 54.3644 51.2651 55.0489 51.2651H59.7805C59.8445 51.2651 59.8745 51.2801 59.8745 51.3287V51.3586L59.5962 52.0092C59.5661 52.0728 59.5172 52.0878 59.4232 52.0878H56.2337C55.9065 52.0878 55.6281 52.1962 55.425 52.4131C55.2859 52.5514 55.1279 52.8169 54.9586 53.1871L54.6164 53.9462C54.4283 54.35 54.338 54.6417 54.338 54.8287C54.338 55.0904 54.4923 55.2325 54.8195 55.2325H58.009C58.0729 55.2325 58.103 55.2474 58.103 55.2961V55.326L57.8247 55.9616C57.7946 56.0252 57.7307 56.0551 57.6517 56.0551V56.0439ZM58.6333 53.849H55.2558C55.1918 53.849 55.1768 53.834 55.1768 53.7854C55.1768 53.7704 55.2708 53.5536 55.4739 53.1198C55.504 53.0562 55.5529 53.0263 55.6281 53.0263H59.0057C59.0696 53.0263 59.0997 53.0413 59.0997 53.0899C59.0997 53.0899 59.0057 53.3217 58.8026 53.7555C58.7725 53.819 58.7086 53.849 58.6296 53.849H58.6333Z" fill="white"/>
<path d="M62.5344 56.0437H58.5061C58.4422 56.0437 58.4121 56.0288 58.4121 55.9802V55.9503L58.6904 55.3146C58.7205 55.251 58.7694 55.2211 58.8635 55.2211H61.974L60.2325 53.6282C59.8903 53.3328 59.7361 53.0262 59.7361 52.7158C59.7361 52.3606 59.9392 52.0502 60.3416 51.7885C60.6538 51.5865 61.0111 51.4332 61.4324 51.3398C61.6956 51.2762 61.9627 51.2612 62.226 51.2612H66.5062C66.5702 51.2612 66.6003 51.2762 66.6003 51.3248V51.3547L66.3219 52.0053C66.2918 52.0689 66.2429 52.0839 66.1489 52.0839H63.0233L64.7497 53.6917C65.186 54.0956 65.3891 54.4658 65.3891 54.8061C65.3891 55.2697 65.0168 55.61 64.2683 55.8269C63.738 55.9652 63.1776 56.0437 62.5419 56.0437H62.5344Z" fill="white"/>
<path d="M70.9702 56.0437H65.43C65.366 56.0437 65.3359 56.0288 65.3359 55.9802C65.3359 55.9652 66.0205 54.4321 67.4046 51.3547C67.4347 51.2911 67.4836 51.2612 67.5776 51.2612H73.1179C73.5391 51.2612 73.8814 51.3697 74.1296 51.5716C74.3929 51.7885 74.5358 52.1138 74.5358 52.5139C74.5358 52.8542 74.4418 53.2393 74.2575 53.6431C73.9604 54.3087 73.5278 54.8509 72.9524 55.2996C72.313 55.7932 71.6623 56.0437 70.9777 56.0437H70.9702ZM71.7187 52.4541C71.7187 52.2073 71.5457 52.0988 71.1884 52.0988H69.8494L68.4502 55.2248H69.7892C70.1164 55.2248 70.3948 55.0865 70.6468 54.8061C70.801 54.6191 70.974 54.3424 71.1432 53.9535L71.4855 53.1944C71.6397 52.8392 71.7187 52.5924 71.7187 52.4503V52.4541Z" fill="white"/>
<path d="M80.3812 56.0439H75.6345C75.2133 56.0439 74.871 55.9355 74.6228 55.7336C74.3595 55.5017 74.2354 55.1914 74.2354 54.7763C74.2354 54.436 74.3294 54.0658 74.5137 53.662C74.8259 52.9964 75.2434 52.4393 75.8188 51.9905C76.4394 51.5119 77.0939 51.2651 77.7784 51.2651H82.5251C82.589 51.2651 82.6191 51.2801 82.6191 51.3287V51.3586L82.3408 52.0092C82.3107 52.0728 82.2618 52.0878 82.1677 52.0878H78.9782C78.651 52.0878 78.3727 52.1962 78.1696 52.4131C78.0304 52.5514 77.8724 52.8169 77.7032 53.1871L77.3609 53.9462C77.1729 54.35 77.0826 54.6417 77.0826 54.8287C77.0826 55.0904 77.2368 55.2325 77.564 55.2325H80.7535C80.8175 55.2325 80.8476 55.2474 80.8476 55.2961V55.326L80.5692 55.9616C80.5391 56.0252 80.4752 56.0551 80.3812 56.0551V56.0439ZM81.3779 53.849H78.0003C77.9364 53.849 77.9213 53.834 77.9213 53.7854C77.9213 53.7704 78.0154 53.5536 78.2185 53.1198C78.2486 53.0562 78.2975 53.0263 78.3727 53.0263H81.7502C81.8142 53.0263 81.8443 53.0413 81.8443 53.0899C81.8443 53.0899 81.7502 53.3217 81.5471 53.7555C81.502 53.819 81.4531 53.849 81.3741 53.849H81.3779Z" fill="white"/>
<path d="M87.2306 55.2247H91.8682C91.9321 55.2247 91.9622 55.2396 91.9622 55.2883V55.3182L91.6839 55.9538C91.6538 56.0174 91.6049 56.0473 91.5109 56.0473H84.2141C84.1502 56.0473 84.1201 56.0324 84.1201 55.9838C84.1201 55.9688 84.3232 55.5051 84.7407 54.5778C85.019 53.9421 85.5193 53.5121 86.2038 53.2803C86.6853 53.127 87.3548 53.0335 88.2123 53.0335H89.6453C89.8334 53.0335 90.0026 52.9886 90.1757 52.9101C90.3637 52.8166 90.5029 52.7082 90.5631 52.5549C90.5932 52.4913 90.5932 52.4464 90.5932 52.4015C90.5932 52.1996 90.4201 52.0912 90.0628 52.0912H85.9857C85.9217 52.0912 85.8916 52.0762 85.8916 52.0276V52.0127L86.17 51.362C86.2001 51.2985 86.249 51.2686 86.343 51.2686H92.3647C92.6769 51.2686 92.9251 51.3321 93.1132 51.4406C93.3614 51.5789 93.4705 51.7958 93.4705 52.0762C93.4705 52.4315 93.2975 52.7717 92.974 53.0971C92.4587 53.6093 91.808 53.8561 91.0295 53.8561H89.273C88.8367 53.8561 88.4944 53.886 88.2612 53.9646C87.9039 54.073 87.6557 54.2749 87.5127 54.5815L87.2344 55.2322L87.2306 55.2247Z" fill="white"/>
<path d="M97.8406 56.0439H94.2449C93.8236 56.0439 93.4813 55.9355 93.2331 55.7336C92.9698 55.5017 92.8457 55.1914 92.8457 54.7763C92.8457 54.436 92.9397 54.0658 93.124 53.662C93.4212 52.9964 93.8537 52.4393 94.4292 51.9905C95.0498 51.5119 95.7042 51.2651 96.3888 51.2651H99.9845C100.406 51.2651 100.748 51.3736 100.996 51.5755C101.26 51.7924 101.402 52.1177 101.402 52.5178C101.402 52.8581 101.308 53.2282 101.124 53.647C100.827 54.2977 100.394 54.8548 99.819 55.3035C99.1645 55.7971 98.5138 56.0476 97.8443 56.0476L97.8406 56.0439ZM98.5891 52.4542C98.5891 52.2074 98.416 52.099 98.0587 52.099H97.4381C97.126 52.099 96.8627 52.2074 96.6596 52.4393C96.5204 52.5776 96.3812 52.8431 96.2233 53.1983L95.881 53.9574C95.6929 54.3762 95.6027 54.6679 95.6027 54.8548C95.6027 55.1166 95.7418 55.24 96.039 55.24H96.6596C96.9868 55.24 97.2651 55.1016 97.5171 54.8212C97.6713 54.6342 97.8443 54.3575 98.0136 53.9686L98.3559 53.2096C98.5101 52.8394 98.5891 52.5926 98.5891 52.4505V52.4542Z" fill="white"/>
<path d="M106.04 56.0439H102.444C102.023 56.0439 101.681 55.9355 101.432 55.7336C101.169 55.5017 101.045 55.1914 101.045 54.7763C101.045 54.436 101.139 54.0658 101.323 53.662C101.62 52.9964 102.053 52.4393 102.628 51.9905C103.249 51.5119 103.903 51.2651 104.588 51.2651H108.184C108.605 51.2651 108.947 51.3736 109.195 51.5755C109.459 51.7924 109.602 52.1177 109.602 52.5178C109.602 52.8581 109.508 53.2282 109.323 53.647C109.026 54.2977 108.594 54.8548 108.018 55.3035C107.379 55.7971 106.728 56.0476 106.044 56.0476L106.04 56.0439ZM106.788 52.4542C106.788 52.2074 106.615 52.099 106.258 52.099H105.637C105.325 52.099 105.062 52.2074 104.859 52.4393C104.72 52.5776 104.58 52.8431 104.422 53.1983L104.08 53.9574C103.892 54.3762 103.802 54.6679 103.802 54.8548C103.802 55.1166 103.941 55.24 104.238 55.24H104.859C105.186 55.24 105.464 55.1016 105.716 54.8212C105.871 54.6342 106.044 54.3575 106.213 53.9686L106.555 53.2096C106.709 52.8394 106.788 52.5926 106.788 52.4505V52.4542Z" fill="white"/>
<path d="M111.705 55.2247H116.342C116.406 55.2247 116.436 55.2396 116.436 55.2883V55.3182L116.158 55.9538C116.128 56.0174 116.079 56.0473 115.985 56.0473H108.703C108.639 56.0473 108.609 56.0324 108.609 55.9838C108.609 55.9688 108.812 55.5051 109.23 54.5778C109.508 53.9421 110.009 53.5121 110.693 53.2803C111.175 53.127 111.844 53.0335 112.702 53.0335H114.135C114.323 53.0335 114.492 52.9886 114.665 52.9101C114.853 52.8166 114.992 52.7082 115.052 52.5549C115.082 52.4913 115.082 52.4464 115.082 52.4015C115.082 52.1996 114.909 52.0912 114.552 52.0912H110.475C110.411 52.0912 110.381 52.0762 110.381 52.0276V52.0127L110.659 51.362C110.689 51.2985 110.738 51.2686 110.832 51.2686H116.854C117.166 51.2686 117.414 51.3321 117.602 51.4406C117.851 51.5789 117.96 51.7958 117.96 52.0762C117.96 52.4315 117.787 52.7717 117.463 53.0971C116.948 53.6093 116.297 53.8561 115.519 53.8561H113.762C113.326 53.8561 112.984 53.886 112.75 53.9646C112.393 54.073 112.145 54.2749 112.002 54.5815L111.705 55.2322V55.2247Z" fill="white"/>
<path d="M54.8198 44.0783C52.9317 44.0783 51.54 42.6574 51.54 40.6905C51.54 38.7237 52.8489 37.3027 54.8198 37.3027H61.7893C61.9699 37.3027 62.0601 37.3925 62.0601 37.5607V38.1964C62.0601 38.3759 61.9699 38.4656 61.7893 38.4656H57.1593C56.2904 38.4656 55.9783 38.7947 55.9783 40.0174V41.1018C55.9783 42.4554 56.3393 42.9116 57.1593 42.9116H58.927V39.8716C58.927 39.6921 59.0173 39.6024 59.1866 39.6024H62.0451C62.2256 39.6024 62.3159 39.6921 62.3159 39.8716V43.8165C62.3159 43.996 62.2256 44.0858 62.0451 44.0858H54.8161L54.8198 44.0783Z" fill="white"/>
<path d="M71.8397 44.0783C71.5915 44.0783 71.3583 43.9997 71.1815 43.809L68.1726 40.7391C68.0635 40.6307 68.0033 40.5484 68.0033 40.3727V40.066C68.0033 39.8978 68.0823 39.808 68.2628 39.808H69.6319C70.26 39.808 70.5835 39.5612 70.5835 39.1312C70.5835 38.7012 70.2638 38.4656 69.6319 38.4656H67.4015V43.8128C67.4015 43.9923 67.3113 44.082 67.1307 44.082H63.7005C63.52 44.082 63.4297 43.9923 63.4297 43.8128V37.5607C63.4297 37.3925 63.52 37.3027 63.7005 37.3027H72.4378C73.6489 37.3027 74.5591 38.0095 74.5591 39.0303C74.5591 40.152 73.679 40.7915 72.6108 40.9485L75.3715 43.7604C75.4204 43.8016 75.443 43.8689 75.443 43.9212C75.443 43.9997 75.3828 44.0783 75.2624 44.0783H71.8435H71.8397Z" fill="white"/>
<path d="M78.6807 44.0783C76.7324 44.0783 75.3896 42.6087 75.3896 40.6905C75.3896 38.7723 76.6985 37.3027 78.6807 37.3027H83.5778C85.5675 37.3027 86.8764 38.7536 86.8764 40.6905C86.8764 42.6274 85.5449 44.0783 83.5778 44.0783H78.6807ZM82.8895 40.0137C82.8895 38.791 82.5811 38.4619 81.7085 38.4619H80.3507C79.5608 38.4619 79.2524 38.8097 79.2524 40.0137V41.0981C79.2524 42.4405 79.5909 42.9079 80.3507 42.9079H81.7085C82.5284 42.9079 82.8895 42.4517 82.8895 41.0981V40.0137Z" fill="white"/>
<path d="M91.0893 44.0786C88.6295 44.0786 87.6816 42.8671 87.6816 40.9563V37.5573C87.6816 37.3891 87.7606 37.2993 87.9412 37.2993H91.6798C91.8491 37.2993 91.9393 37.3891 91.9393 37.5573V40.9563C91.9393 42.1678 92.4396 42.9045 93.5679 42.9045H95.2868C96.4264 42.9045 96.9568 42.1678 96.9568 40.9563V37.5573C96.9568 37.3891 97.047 37.2993 97.2276 37.2993H98.4274C98.6079 37.2993 98.6982 37.3891 98.6982 37.5573V40.9563C98.6982 42.6951 97.6188 44.0786 95.2906 44.0786H91.0931H91.0893Z" fill="white"/>
<path d="M104.287 41.6816C104.117 41.6816 104.027 41.5918 104.027 41.4123V40.7767C104.027 40.5972 104.117 40.5074 104.287 40.5074H105.566C106.194 40.5074 106.694 40.2494 106.694 39.4829C106.694 38.7762 106.194 38.4583 105.566 38.4583H103.425V43.8055C103.425 43.9849 103.335 44.0747 103.155 44.0747H99.7244C99.5551 44.0747 99.4648 43.9849 99.4648 43.8055V37.5534C99.4648 37.3852 99.5551 37.2954 99.7244 37.2954H108.274C109.582 37.2954 110.613 38.1106 110.613 39.5203C110.613 40.93 109.485 41.6778 108.014 41.6778H104.287V41.6816Z" fill="white"/>
<path d="M130.439 0.0001543H114.021C113.611 0.0001543 113.228 0.22451 113.025 0.587218C113.002 0.632089 112.957 0.699396 112.957 0.744267L112.231 2.2998L111.392 4.10212H111.415C111.37 4.19186 111.347 4.28161 111.347 4.37135C111.347 4.70788 111.573 4.98085 111.87 5.04815H112.231C112.246 5.04815 112.261 5.04068 112.276 5.02572V5.04815H115.315L113.273 9.40065L112.069 11.992L110.915 14.4935L109.85 16.7707L108.831 18.9582L106.495 24.0548L104.908 27.48L104.863 27.5473C104.795 27.6595 104.772 27.8165 104.772 27.9773C104.772 28.5868 105.273 29.0804 105.882 29.0804V29.1252H120.397C120.852 29.1252 121.235 28.856 121.416 28.4933L121.438 28.4484L123.481 24.0511L125.862 18.9545L126.881 16.767L127.945 14.4898L129.1 11.9882L130.304 9.39691L132.346 5.04442L132.684 4.34517C132.73 4.27787 132.752 4.233 132.775 4.16569C132.91 3.80672 133 3.39914 133 2.99156C133 1.50334 131.913 0.239467 130.439 -0.00732422V0.0001543Z" fill="white"/>
<path d="M103.204 24.055H81.637L83.1565 20.8318C83.4725 20.1325 83.905 19.523 84.4278 18.9621C85.6765 17.6309 87.4443 16.7971 89.4377 16.7971H100.435C100.751 16.7747 101.071 16.7298 101.387 16.6849C103.223 16.3932 104.949 15.7164 106.468 14.7442C106.581 14.6545 106.694 14.6096 106.83 14.5199C107.849 13.8206 108.733 12.9643 109.526 12.0183C109.981 11.4537 110.365 10.8928 110.73 10.2609C110.752 10.216 110.798 10.1487 110.82 10.1038C110.933 9.87946 111.046 9.6738 111.136 9.42701C111.475 8.61559 111.636 7.7593 111.636 6.85814C111.636 6.24864 111.546 5.63914 111.411 5.07825C111.366 4.9212 111.298 4.71928 111.253 4.55849C110.752 3.18244 109.846 2.01206 108.669 1.20064C107.785 0.591137 106.717 0.164861 105.585 0.0526836C105.404 0.0302481 105.224 0.0078125 105.017 0.0078125H76.6722C76.2622 0.0078125 75.9011 0.232168 75.698 0.550005C75.6529 0.639748 75.6078 0.684619 75.5852 0.774361L74.0205 4.10978H74.0431C73.998 4.19952 73.9754 4.28927 73.9754 4.37901C73.9754 4.71554 74.2011 4.98851 74.4982 5.05581H95.1811C95.497 5.07825 95.7716 5.19043 95.9521 5.41478C95.9747 5.43722 95.9747 5.45965 95.9973 5.45965C96.4524 6.00185 96.7458 6.70109 96.7458 7.46764C96.7458 8.07714 96.5652 8.6642 96.2229 9.15778C96.1552 9.26996 96.1101 9.33727 96.0198 9.42701C95.9973 9.47188 95.9747 9.49432 95.9296 9.51675C95.9296 9.51675 95.9296 9.53919 95.907 9.53919C94.8651 10.7806 93.3907 11.6593 91.7358 11.9286C91.3747 11.9959 90.9873 12.0408 90.6037 12.0408H79.2411C78.9929 12.0408 78.7409 12.0408 78.5152 12.0632C77.1085 12.1305 75.7244 12.31 74.3891 12.6503C73.5278 12.8522 72.6439 13.1251 71.8278 13.4617C71.7601 13.4841 71.7149 13.5065 71.6698 13.529C70.8987 13.8431 70.1277 14.1833 69.4018 14.5648H69.3792C69.5372 14.0674 69.6726 13.5738 69.7892 13.0541C69.8795 12.7176 69.9246 12.3997 69.9923 12.0632C70.1503 11.2293 70.2631 10.3506 70.3082 9.47188C70.3308 9.0643 70.3534 8.66046 70.3534 8.25288V7.57608C70.3082 6.71978 70.1277 5.88593 69.8306 5.11938C69.7177 4.87259 69.6274 4.59962 69.492 4.37527C68.8338 3.06653 67.8145 1.98588 66.5658 1.1969C65.5917 0.587398 64.4784 0.183558 63.256 0.0489444H41.031C39.9891 0.116251 38.9887 0.250864 38.0145 0.478959C36.1565 0.886539 34.3624 1.53717 32.73 2.39346C31.2782 3.16001 29.9392 4.06117 28.7168 5.14556C28.6265 5.2353 28.5588 5.28017 28.4686 5.36991C27.8329 5.95697 27.2199 6.56647 26.6557 7.19467L27.6073 5.14182L27.9458 4.42014L28.0135 4.28553C28.1714 3.92656 28.2617 3.51898 28.2617 3.08896C28.2617 1.55587 27.1521 0.314432 25.7003 0.0676407H9.20743C8.82379 0.0900762 8.48152 0.314432 8.30098 0.654705C8.27841 0.699576 8.25585 0.744447 8.23328 0.766882L6.64605 4.19204H6.66862C6.62348 4.28179 6.60092 4.37153 6.60092 4.46127C6.60092 4.7978 6.82659 5.07077 7.12372 5.13808H10.569L8.52665 9.49058L7.32307 12.0594L6.16838 14.561L5.10396 16.8382L4.08467 19.0257L1.70383 24.1223L0.112836 27.5288L0.0902689 27.5961C0.0225672 27.7083 0 27.8653 0 28.0261C0 28.6356 0.50024 29.1292 1.10956 29.1292V29.174H15.6692C16.1243 29.174 16.5079 28.9048 16.6885 28.5421L16.711 28.4972L18.7534 24.0999L21.1342 19.0033L21.7473 17.6945C21.6796 18.1245 21.6345 18.5508 21.5893 19.0033C21.5216 19.6128 21.4991 20.2671 21.4991 20.8953V21.1197C21.4991 21.2543 21.4991 21.4338 21.5216 21.5721V21.617C21.5668 22.4733 21.7473 23.3071 22.067 24.0961C22.1573 24.298 22.225 24.5037 22.3378 24.7056C22.9734 26.0144 23.9927 27.1399 25.2189 27.9289C26.1253 28.5384 27.1935 28.9198 28.3031 29.0768C28.6867 29.1441 29.1193 29.189 29.5518 29.189H49.6667C51.0509 29.1666 52.435 29.0095 53.7251 28.7365C55.5831 28.3551 57.3546 27.7008 58.987 26.8669C59.0998 26.822 59.1901 26.7547 59.2804 26.7099C60.6194 25.9882 61.8869 25.1319 63.0228 24.141C63.1356 24.0513 63.2259 23.9615 63.3387 23.8493C64.4031 22.9033 65.3585 21.8638 66.1972 20.7383L64.6326 24.141L62.7745 28.1532L62.6843 28.3327C62.6617 28.4 62.6617 28.4449 62.6617 28.5346C62.6617 28.8712 62.8874 29.1441 63.1845 29.2114H101.872L102.211 28.5122L102.233 28.4449L103.73 25.2216L103.843 24.9973C103.866 24.93 103.866 24.8851 103.866 24.8178C103.911 24.3654 103.595 24.0513 103.207 24.0513L103.204 24.055ZM51.0471 16.7971L50.0278 18.9846L49.8698 19.3435L49.757 19.5454C49.5088 20.0876 49.1665 20.5812 48.828 21.0337C47.5116 22.7014 45.5407 23.8082 43.2952 24.0326C43.047 24.055 42.7724 24.0774 42.5242 24.0774H38.0107C37.6948 24.0774 37.3977 23.9877 37.1494 23.8531C36.5364 23.539 36.1301 22.907 36.1301 22.1854C36.1301 21.8937 36.1978 21.6207 36.3107 21.3739L36.3784 21.2393L37.3525 19.164L37.4428 19.007L38.4621 16.8195L39.5265 14.5423L40.6812 12.0408L41.9074 9.44944H41.9525C42.2007 8.95212 42.4979 8.50341 42.8138 8.09583C44.0174 6.58517 45.7626 5.52696 47.756 5.16425C47.8914 5.14182 48.072 5.11938 48.2111 5.09695C48.5045 5.05207 48.8242 5.05207 49.1176 5.05207C49.4335 5.05207 49.7307 5.07451 50.024 5.09695H53.5633C53.9733 5.09695 54.3795 5.23156 54.6729 5.45591C55.128 5.81488 55.4439 6.33464 55.4439 6.96658C55.4439 7.21337 55.3988 7.4639 55.3085 7.66582L55.2183 7.80043V7.82287L54.4698 9.40083L54.4247 9.49058L53.27 11.9921L52.1153 14.4937L51.0508 16.7934L51.0471 16.7971ZM67.3519 19.007V18.9621H67.3745C67.3745 18.9846 67.3519 18.9846 67.3519 19.007Z" fill="white"/>
</g>
<defs>
<linearGradient id="paint0_linear_2192_967" x1="38.327" y1="40.855" x2="123.631" y2="40.855" gradientUnits="userSpaceOnUse">
<stop stop-color="#25CE17"/>
<stop offset="0.22" stop-color="#279215"/>
<stop offset="0.48" stop-color="#126A21"/>
<stop offset="1" stop-color="#212121"/>
</linearGradient>
<clipPath id="clip0_2192_967">
<rect width="133" height="56.044" fill="white"/>
</clipPath>
</defs>
</svg>
