<svg width="92" height="70" viewBox="0 0 92 70" fill="none" xmlns="http://www.w3.org/2000/svg">
<g id="Group 718">
<path id="Vector" d="M45.9762 69.2461C46.3466 69.2557 46.6232 69.0339 46.911 68.8474C49.6821 67.0644 52.4499 65.2782 55.221 63.4953C60.4945 60.103 65.7647 56.7026 71.0493 53.328C72.1479 52.6255 72.8665 51.7075 73.0477 50.3939C73.124 49.8377 73.1813 49.2782 73.2337 48.7187C73.717 43.5772 74.186 38.4341 74.6868 33.2958C74.8569 31.5434 75.7695 30.336 77.4245 29.6849C79.2989 28.947 81.1479 28.1383 83.0143 27.3778C83.5946 27.1415 83.9778 26.7556 84.1844 26.156C84.5851 24.992 85.0159 23.8408 85.4166 22.6769C85.4976 22.4421 85.752 22.1576 85.5008 21.9421C85.2751 21.7476 85.0016 21.9807 84.7663 22.0788C80.7027 23.7749 76.6455 25.4855 72.5771 27.1672C71.4754 27.6222 70.9333 28.4068 70.7949 29.59C70.1097 35.492 69.7218 41.4197 69.2162 47.3377C69.062 49.1383 68.6709 50.7637 67.035 51.8264C60.3704 56.1528 53.7123 60.4888 47.0636 64.8409C46.2862 65.3506 45.6328 65.3088 44.8712 64.8104C38.3307 60.5371 31.787 56.2702 25.221 52.037C23.6264 51.0097 22.8633 49.5579 22.6995 47.7219C22.1606 41.6994 21.6344 35.6769 21.1002 29.6544C21 28.5193 20.4611 27.6511 19.4213 27.2106C15.2687 25.4534 11.1034 23.7299 6.9396 22C6.75677 21.9244 6.53579 21.7669 6.35455 21.9775C6.20828 22.1447 6.34501 22.3344 6.40542 22.5048C6.80606 23.6399 7.221 24.7685 7.60733 25.9084C7.86647 26.6704 8.36249 27.1511 9.09222 27.4727C10.8903 28.2621 12.6932 29.0354 14.5358 29.7138C15.9809 30.246 16.8538 31.2894 17.0795 32.8264C17.2417 33.9373 17.3291 35.0579 17.4388 36.1753C17.8522 40.4084 18.2766 44.6415 18.6646 48.8779C18.8379 50.7669 19.3402 52.3747 21.0827 53.4808C29.1113 58.5805 37.1018 63.7445 45.1049 68.8827C45.372 69.0548 45.6407 69.2348 45.9762 69.2461Z" fill="#C2A220"/>
<path id="Vector_2" d="M91.9984 4.29272C91.5453 4.46314 91.275 4.55961 91.0079 4.66732C76.601 10.4921 62.1924 16.3088 47.7949 22.1561C46.558 22.6577 45.4356 22.6658 44.1971 22.1625C32.7488 17.505 21.2877 12.8796 9.82828 8.24772C6.75515 7.00495 3.67884 5.77183 0.602524 4.5371C0.416514 4.46153 0.190759 4.27022 0.0301864 4.47761C-0.0461252 4.57568 0.0397254 4.83292 0.0953693 5.00173C0.356101 5.7879 0.672476 6.558 0.893462 7.35704C1.23368 8.59016 1.99203 9.31203 3.16055 9.82489C15.035 15.0435 26.8887 20.3088 38.752 25.5516C39.9714 26.0902 40.9746 26.8876 41.8092 27.9214C43.3195 29.7896 44.3259 31.9391 45.2416 34.1433C45.4515 34.6497 45.6852 35.1465 45.9126 35.6577C46.2544 35.4728 46.3036 35.1899 46.4213 34.96C47.1796 33.4568 47.9555 31.9632 48.6773 30.4423C49.744 28.1915 51.1304 26.4069 53.523 25.3008C62.2655 21.2574 71.1065 17.4471 79.9475 13.6368C82.6995 12.4503 85.4579 11.2799 88.2099 10.095C89.3259 9.61428 90.3927 9.02907 90.8617 7.81685C91.283 6.73003 91.5851 5.59659 92 4.29272H91.9984Z" fill="#C2A220"/>
<path id="Vector_3" d="M63.9221 43.0258C64.1065 43.0066 64.2878 42.968 64.4722 42.9455C66.0843 42.7397 66.461 42.3394 66.5898 40.722C66.8585 37.3779 66.6788 34.029 66.7075 30.6818C66.7106 30.2589 66.6216 29.8281 66.5246 29.4133C66.3323 28.6014 65.8442 28.0355 65.0525 27.7557C64.5262 27.5692 63.9809 27.4744 63.4277 27.4004C60.8823 27.0644 58.3307 26.767 55.7981 26.3554C53.7647 26.0242 52.1637 26.6126 50.8871 28.2364C49.442 30.0741 48.3354 32.1062 47.3021 34.1962C46.4992 35.82 46.1653 37.5146 46.1796 39.3152C46.2035 42.2348 46.186 45.1529 46.186 48.0725H46.275C46.275 50.3233 46.2941 52.5741 46.2639 54.8233C46.2544 55.5805 46.5596 55.8233 47.2703 55.7461C49.1637 55.5355 51.062 55.3651 52.9539 55.1561C54.1701 55.0211 54.1717 55.0002 54.1733 53.7928C54.1765 50.7927 54.1733 47.7911 54.1812 44.7911C54.1812 44.5435 54.0858 44.1818 54.4261 44.1127C54.6836 44.0596 54.7917 44.3715 54.9173 44.5709C55.0016 44.7059 55.0715 44.8506 55.1431 44.9937C56.4992 47.6915 57.8569 50.3892 59.2083 53.0886C59.9714 54.6143 60.4006 54.7783 61.9475 54.0854C62.213 53.9664 62.469 53.8233 62.7154 53.6657C63.787 52.976 64.8283 52.23 65.9332 51.5982C66.6184 51.2043 66.6168 50.8378 66.2719 50.2011C65.2321 48.2734 64.2448 46.3169 63.248 44.3667C62.6327 43.1609 62.6407 43.1577 63.9221 43.0258ZM59.558 40.7365C58.0747 40.7204 56.5946 40.6529 55.1129 40.6352C54.3815 40.6271 54.1463 40.2541 54.1637 39.5692C54.1876 38.6062 54.1701 37.6416 54.1701 36.6786H54.1781C54.1781 35.6335 54.1796 34.5885 54.1765 33.5451C54.1749 32.902 54.4865 32.611 55.1176 32.6609C56.4897 32.767 57.8617 32.857 59.2321 32.9792C60.3625 33.0805 60.5946 33.3425 60.6057 34.4969C60.6232 36.2107 60.6343 37.9246 60.6296 39.6384C60.6264 40.5435 60.4388 40.7461 59.558 40.7365Z" fill="#C2A220"/>
<path id="Vector_4" d="M45.2591 53.6238C45.2591 48.4003 45.2607 43.1752 45.256 37.9517C45.2544 37.6061 45.2528 37.2459 45.1669 36.9148C44.318 33.6607 42.7281 30.7749 40.7901 28.0707C39.7154 26.5723 38.2321 26.2154 36.4976 26.4678C33.1463 26.9549 29.7901 27.4083 26.434 27.8681C25.2575 28.0289 25.1844 28.0996 25.1844 29.3392V39.6222H25.3466C25.3466 43.1045 25.3593 46.5884 25.3355 50.0707C25.3307 50.8537 25.6025 51.3826 26.2766 51.7765C27.2623 52.3537 28.2099 52.9936 29.1749 53.6045C29.7885 53.992 30.4404 54.2492 31.1685 54.3473C33.7138 54.6865 36.2512 55.0772 38.7965 55.4035C40.3704 55.6045 41.9428 55.8762 43.5389 55.7974C44.6391 55.7444 45.1113 55.2958 45.2416 54.1865C45.2639 54 45.2591 53.8119 45.2591 53.6238ZM38.0032 40.7733H37.9952C37.9952 42.9148 38.0159 45.0546 37.9889 47.1945C37.9698 48.7154 37.7409 48.8762 36.2273 48.7379C34.965 48.6222 33.6979 48.5482 32.4324 48.455C31.5294 48.3891 31.3084 48.1801 31.3052 47.2717C31.2957 42.963 31.3052 38.6559 31.2909 34.3472C31.2878 33.5916 31.5851 33.2106 32.3498 33.1639C33.8792 33.0691 35.4054 32.926 36.9348 32.8312C37.5215 32.7942 37.8951 33.09 37.9459 33.7122C37.9746 34.0594 38 34.4067 38.0016 34.7524C38.0064 36.7604 38.0032 38.7669 38.0032 40.7733Z" fill="#C2A220"/>
<path id="Vector_5" d="M46.0048 0C45.8379 0.191319 45.7663 0.242766 45.7377 0.311898C44.1654 4.11576 42.5978 7.91963 41.027 11.7235C40.8235 12.2187 40.9285 12.6528 41.2242 13.082C42.6662 15.1672 44.1081 17.2508 45.5247 19.3521C45.8633 19.8537 46.0588 19.8023 46.3657 19.3344C47.752 17.2123 49.1495 15.0981 50.5644 12.9936C50.946 12.4261 50.9841 11.8955 50.7123 11.2653C49.8951 9.37783 49.1177 7.47268 48.3259 5.57236C47.5676 3.75242 46.8092 1.93087 46.0048 0Z" fill="#C2A220"/>
<path id="Vector_6" d="M20.5293 24.4679C20.364 23.1415 20.1669 21.8184 20.0445 20.4872C19.9761 19.7412 19.6025 19.3489 18.9459 19.0852C17.2988 18.4245 15.6661 17.7251 14.027 17.0402C10.5786 15.6013 7.1303 14.1608 3.68038 12.7235C3.46416 12.6334 3.1923 12.4244 3.01742 12.5691C2.75987 12.7798 3.03014 13.0643 3.10963 13.299C3.57545 14.664 4.07784 16.0177 4.53094 17.3875C4.8028 18.2106 5.30677 18.7267 6.10963 19.0531C8.93316 20.201 11.7392 21.3923 14.55 22.5676C16.3354 23.3135 18.1176 24.0676 19.9045 24.8087C20.2177 24.9389 20.6216 25.1479 20.5309 24.4663L20.5293 24.4679Z" fill="#C2A220"/>
<path id="Vector_7" d="M71.3291 24.6624C71.3323 25.2364 71.8093 24.8586 72.1066 24.7348C76.7552 22.8023 81.3975 20.8554 86.0414 18.9132C86.5279 18.7107 86.9221 18.4036 87.1066 17.8972C87.6932 16.2927 88.2655 14.6817 88.8395 13.0708C88.8919 12.9245 88.9778 12.7589 88.8585 12.6142C88.6964 12.4164 88.5072 12.5627 88.3498 12.6271C87.5883 12.9341 86.8347 13.2605 86.0763 13.5756C81.919 15.3103 77.7632 17.0499 73.601 18.7718C72.415 19.2621 71.655 20.066 71.6312 21.4084C71.6137 22.4293 71.4897 23.4342 71.3291 24.6624Z" fill="#C2A220"/>
<path id="Vector_8" d="M49.1828 19.9052C49.434 19.8827 49.5167 19.894 49.585 19.8666C52.3291 18.7348 55.0699 17.5965 57.814 16.4695C58.372 16.2396 58.5373 15.8152 58.5055 15.2541C58.4292 13.947 58.3768 12.6367 58.2814 11.3296C58.1812 9.95503 58.0429 8.58364 57.9205 7.21065C57.8664 7.18975 57.8108 7.16885 57.7567 7.14795C54.9284 11.357 52.0985 15.5676 49.1844 19.9052H49.1828Z" fill="#C2A220"/>
<path id="Vector_9" d="M42.4881 19.7702C39.6391 15.529 36.8315 11.3521 34.0191 7.16724C33.7329 7.39232 33.7853 7.59489 33.7726 7.77335C33.5978 10.2235 33.4594 12.6785 33.2321 15.1238C33.159 15.9116 33.4006 16.2943 34.1065 16.5756C36.6391 17.5837 39.1526 18.6415 41.6757 19.6737C41.8839 19.7589 42.089 19.9229 42.4881 19.7702Z" fill="#C2A220"/>
</g>
</svg>
