<?xml version="1.0" encoding="utf-8"?>
<!-- Generator: Adobe Illustrator 27.4.1, SVG Export Plug-In . SVG Version: 6.00 Build 0)  -->
<svg version="1.1" id="Camada_1" xmlns="http://www.w3.org/2000/svg" xmlns:xlink="http://www.w3.org/1999/xlink" x="0px" y="0px"
	 viewBox="0 0 718.6 348.1" style="enable-background:new 0 0 718.6 348.1;" xml:space="preserve">
<style type="text/css">
	.st0{fill:#212121;}
	.st1{fill:url(#SVGID_1_);}
	.st2{fill:#FFFFFF;}
	.st3{font-family:'SofachromeItalic';}
	.st4{font-size:56.3756px;}
	.st5{letter-spacing:1;}
</style>
<g>
	<g>
		<path class="st0" d="M657.6,97.6h-0.5h-4.5h-16.6h-21.2h-18.6h-10.6h-7.1l0,0c-2,0-3.8,1.1-4.8,2.8c-0.1,0.2-0.3,0.5-0.3,0.8l0,0
			l-3.5,7.6l-4.1,8.8l0.1,0c-0.2,0.4-0.3,0.9-0.3,1.3c0,1.6,1.1,2.9,2.5,3.3h1.8c0.1,0,0.1,0,0.2-0.1c0,0,0,0,0,0.1h4.1h10.6
			l-9.8,21.1l-5.8,12.6l-5.6,12.1l-5.1,11.1l-4.9,10.6l-11.5,24.7l-7.7,16.6l-0.2,0.3l0,0c-0.3,0.6-0.4,1.3-0.4,2.1
			c0,3,2.4,5.4,5.4,5.4v0.2h10h21.2h21.1h17.7v0c2.2,0,4-1.3,4.9-3.1l0.1-0.2l9.9-21.3l11.5-24.7l4.9-10.6l5.1-11.1l5.6-12.1
			l5.8-12.6l9.8-21.1l1.6-3.4c0.2-0.3,0.3-0.6,0.4-0.9c0.7-1.8,1.1-3.7,1.1-5.7C670,104.9,664.7,98.8,657.6,97.6z"/>
		<path class="st0" d="M526.2,214.4H526h-5.2h-17.7h-2.4h-7.6h-10H462h-18.6h-16.8h-4.4l7.3-15.6l0,0c1.5-3.4,3.6-6.4,6.1-9.1
			c6-6.5,14.6-10.5,24.2-10.5l0,0h16h2.6h21.2h2.8h10.4c1.5-0.1,3.1-0.3,4.6-0.5c8.9-1.4,17.2-4.7,24.5-9.4c0.5-0.4,1.1-0.7,1.7-1.1
			c4.9-3.4,9.2-7.5,13-12.1c2.2-2.7,4.1-5.5,5.8-8.5c0.1-0.2,0.3-0.5,0.4-0.8c0.6-1.1,1.1-2.1,1.5-3.3c1.6-3.9,2.4-8.1,2.4-12.5
			c0-3-0.4-5.9-1.1-8.6c-0.2-0.8-0.5-1.7-0.8-2.5c-2.4-6.7-6.8-12.4-12.5-16.3c-4.3-3-9.4-5-14.9-5.6c-0.9-0.1-1.8-0.2-2.7-0.2h0
			h-2.4h0h-15.9h-18.6h-10.5h-10.7h-21.1h-7.7h-4.3h-9.2h-18.6h-17.8l0,0c-2,0-3.7,1.1-4.7,2.6l0,0c-0.2,0.4-0.4,0.7-0.5,1.1
			l-7.5,16.2l0.1,0c-0.2,0.4-0.3,0.9-0.3,1.3c0,1.6,1.1,2.9,2.5,3.3h1.8h14.9h18.6h9.2h12h1.1h20h5.6h15.6h0.5h0c0.1,0,0.2,0,0.3,0
			c0.1,0,0.1,0,0.2,0h0.1c1.5,0.1,2.8,0.7,3.7,1.8c0.1,0.1,0.1,0.2,0.2,0.2c2.2,2.6,3.6,6,3.6,9.7c0,3-0.9,5.8-2.5,8.2
			c-0.3,0.5-0.6,0.9-1,1.3c-0.1,0.2-0.2,0.3-0.4,0.4c0,0,0,0.1-0.1,0.1c-5,6-12.1,10.3-20.1,11.6c-1.8,0.3-3.6,0.5-5.5,0.5h-6.5
			h-9.4h-21.1h-16.4h-1.3c-1.2,0-2.4,0-3.5,0.1c-6.8,0.3-13.5,1.2-19.9,2.8c-4.2,1-8.4,2.3-12.4,3.9c-0.3,0.1-0.6,0.2-0.8,0.3
			c-3.7,1.5-7.4,3.2-10.9,5c0,0,0,0-0.1,0c0,0,0,0,0,0c0.8-2.4,1.4-4.8,2-7.3c0.4-1.6,0.7-3.2,1-4.8c0.8-4.1,1.3-8.3,1.5-12.6
			c0.1-2,0.2-3.9,0.2-5.9c0-0.4,0-0.7,0-1.1c0-0.7,0-1.5,0-2.2c0,0,0,0,0,0c-0.2-4.2-1.1-8.2-2.5-11.9c-0.5-1.2-1-2.5-1.6-3.6
			c-3.2-6.3-8.1-11.6-14.1-15.4c-4.7-3-10.1-4.9-16-5.6c-0.1,0-0.1,0-0.2,0h-8.8h-12.2h-21.1h-21.2h-18.6h-10.8h-10.4h-4
			c-5,0.3-9.8,1-14.6,2.1c-9,2-17.6,5.1-25.5,9.3c-7,3.7-13.5,8.1-19.4,13.3c-0.4,0.4-0.8,0.7-1.2,1.1c-3.1,2.8-6,5.8-8.8,8.9
			l4.6-10l1.6-3.5l0.3-0.7c0.8-1.8,1.2-3.7,1.2-5.8c0-7.4-5.4-13.5-12.4-14.7h-0.5h-4.5h-16.6h-21.2H90.9H73.6c-0.1,0-0.3,0-0.4,0
			c-0.1,0-0.3,0-0.4,0c-1.9,0.1-3.5,1.2-4.4,2.8l0,0c-0.1,0.2-0.2,0.4-0.3,0.6l-7.7,16.6l0.1,0c-0.2,0.4-0.3,0.9-0.3,1.3
			c0,1.6,1.1,2.9,2.5,3.3h1.8h14.9l-9.8,21.1L63.8,156l-5.6,12.1l-5.1,11.1l-4.9,10.6l-11.5,24.7L29,231l-0.1,0.3c0,0,0,0,0,0
			c-0.3,0.6-0.4,1.3-0.4,2.1c0,3,2.4,5.4,5.4,5.4v0.2h10H65h21.1h17.7v0c2.2,0,4-1.3,4.9-3.1l0.1-0.2l9.9-21.3l11.5-24.7l2.9-6.3
			c-0.3,2.1-0.6,4.2-0.8,6.3c-0.3,3-0.4,6.1-0.4,9.2c0,0.3,0,0.7,0,1c0,0,0,0.1,0,0.1c0,0.7,0,1.5,0.1,2.2c0,0.1,0,0.1,0,0.2
			c0.2,4.2,1.1,8.2,2.6,12c0.4,1,0.8,2,1.3,2.9c3.1,6.4,8,11.8,13.9,15.6c4.4,2.9,9.5,4.8,14.9,5.6c1.9,0.3,3.9,0.5,6,0.5v0h15h18.6
			h21.2h21.1h21.2v0l0,0c6.7-0.1,13.3-0.9,19.6-2.2c9-1.9,17.5-5,25.4-9.1c0.5-0.2,1-0.5,1.4-0.8c6.5-3.5,12.6-7.7,18.1-12.5
			c0.5-0.4,1-0.9,1.5-1.4c5.1-4.6,9.7-9.6,13.8-15.1l-7.6,16.5l-9,19.5l-0.4,0.9c-0.1,0.3-0.1,0.6-0.1,1c0,1.6,1.1,2.9,2.5,3.3h1.8
			h15h18.6h21.2h21.1h21.2h7.9h10.7h21.2h8.2h9.3h20.1h1.6h8.9l1.6-3.4l0.1-0.3l7.2-15.6l0.5-1.1c0.1-0.3,0.1-0.6,0.1-0.9
			C529.6,215.9,528.1,214.4,526.2,214.4z M274.5,179.1l-4.9,10.6l-0.8,1.7l-0.5,1c-1.2,2.6-2.8,5-4.5,7.2
			c-6.4,8.1-15.9,13.5-26.7,14.6l0,0c-1.2,0.1-2.5,0.2-3.7,0.2h-0.1h-17.5h-4.2v0c-1.5,0-3-0.4-4.2-1.1c-2.9-1.5-4.9-4.6-4.9-8.1
			c0-1.4,0.3-2.7,0.9-3.9l0,0l0.3-0.7l4.7-10.1l0.4-0.8l4.9-10.6l5.1-11.1l5.6-12.1l5.9-12.6h0.2c1.2-2.4,2.6-4.6,4.2-6.6
			c5.8-7.3,14.2-12.5,23.8-14.2c0.7-0.1,1.5-0.2,2.2-0.3c1.4-0.2,2.9-0.2,4.4-0.2c1.5,0,3,0.1,4.4,0.2h10.3h6.8v0
			c2,0,3.9,0.7,5.4,1.8c2.2,1.7,3.7,4.3,3.7,7.3c0,1.2-0.2,2.4-0.7,3.4l-0.4,0.7c0,0,0,0.1,0,0.1h0l-3.6,7.7l-0.2,0.4l-5.6,12.1
			l-5.6,12.1L274.5,179.1z M353.2,189.9c0-0.1,0-0.1,0-0.2h0.1C353.3,189.8,353.2,189.8,353.2,189.9z"/>
	</g>
	<g>
		<path class="st0" d="M286.9,289.9c-0.1,0-0.1,0-0.1-0.2c1.2-0.4,1.7-1.3,1.5-2.6c-0.4-2.2-0.8-4.4-1.2-6.6
			c-0.2-0.9-0.7-1.4-1.6-1.7c-0.2-0.1-0.5-0.1-0.7-0.1c1.1-1.4,1.1-2,0.2-3.5c-1-1.7-2-3.4-3-5.2c-0.3-0.6-0.8-0.9-1.4-1
			c-0.5-0.1-0.9-0.1-1.4,0.1c-0.1-0.2,0-0.3,0.1-0.4c0.3-0.8,0.2-1.9-0.5-2.5c-1.8-1.5-3.5-3-5.3-4.4c-0.8-0.6-1.6-0.6-2.5-0.1
			c-0.1,0.1-0.2,0.2-0.4,0.2c0-0.1,0-0.1,0-0.2c0-1.4-0.4-2-1.7-2.5c-1.9-0.7-3.8-1.4-5.7-2.1c-1.4-0.5-2.2-0.3-3.1,0.9
			c0,0,0,0-0.1,0c0-0.1-0.1-0.2-0.1-0.3c-0.3-1-1.1-1.6-2.1-1.6c-2.2,0-4.4,0-6.7,0c-1,0-1.8,0.6-2.1,1.6c0,0.1,0,0.3-0.2,0.3
			c-0.9-1.1-1.8-1.4-2.8-1c-2.1,0.8-4.1,1.5-6.2,2.3c-1,0.4-1.5,1.1-1.5,2.2c0,0.1,0.1,0.3-0.1,0.5c-0.1,0-0.1-0.1-0.1-0.1
			c-1-0.7-1.9-0.6-2.9,0.1c-1.7,1.4-3.4,2.8-5,4.2c-0.7,0.6-0.9,1.3-0.7,2.2c0.1,0.3,0.1,0.5,0.2,0.8c-0.1,0-0.1,0-0.2,0
			c-1.2-0.3-2.1,0-2.7,1.1c-1.1,1.8-2.1,3.7-3.2,5.5c-0.2,0.4-0.4,0.8-0.4,1.3c0,0.7,0.4,1.3,0.9,1.8c-1.5,0.2-2.1,0.8-2.4,2.1
			c-0.4,2.1-0.8,4.1-1.1,6.2c-0.2,1.1,0.2,2,1.2,2.5c0.1,0,0.2,0.1,0.2,0.2c0,0.1-0.1,0.1-0.2,0.2c-1,0.6-1.4,1.4-1.2,2.5
			c0.4,2.1,0.8,4.3,1.1,6.4c0.2,1,0.9,1.6,1.8,1.8c0.2,0,0.3,0,0.5,0.1c0,0.1-0.1,0.1-0.1,0.1c-0.9,1-1,1.9-0.4,3
			c1.1,1.8,2.1,3.7,3.2,5.5c0.3,0.6,0.8,1,1.5,1.1c0.5,0.1,0.9,0.1,1.4-0.1c0,0.1,0,0.2-0.1,0.2c-0.5,1.2-0.3,2.1,0.7,2.9
			c1.6,1.4,3.2,2.7,4.8,4c1.1,0.9,2,0.9,3.2,0c-0.1,1.6,0.3,2.3,1.8,2.8c1.9,0.7,3.9,1.4,5.8,2.1c1,0.4,2,0.1,2.7-0.8
			c0.1-0.1,0.1-0.3,0.3-0.3c0.4,1.3,1.1,1.9,2.3,1.9c2.2,0,4.4,0,6.6,0c1.1,0,1.9-0.6,2.2-1.7c0-0.1,0-0.2,0.1-0.3
			c0.1,0.1,0.2,0.2,0.3,0.4c0.6,0.7,1.6,1,2.5,0.7c2.1-0.8,4.1-1.5,6.2-2.3c1.1-0.4,1.5-1.1,1.5-2.2c0-0.1-0.1-0.3,0.1-0.4
			c1.3,0.9,2.4,0.6,3.5-0.4c1.5-1.3,3.1-2.6,4.6-3.9c0.3-0.3,0.5-0.6,0.6-1c0.2-0.7,0.1-1.3-0.2-1.9c0.1-0.1,0.2,0,0.3,0
			c1.1,0.3,2.1-0.2,2.7-1.2c1-1.8,2-3.5,3-5.3c0.7-1.2,0.6-2.1-0.3-3.1c0,0,0-0.1-0.1-0.1c0.1,0,0.2,0,0.2,0c1.2-0.2,1.9-0.8,2.1-2
			c0.4-2.1,0.8-4.2,1.1-6.2C288.5,291.3,288,290.5,286.9,289.9z M253.9,317.6c-14.9-0.3-27.2-12.6-27.1-27.7
			c-0.2-15.3,12.3-27.6,27.1-27.9c16-0.3,28.5,12.5,28.5,27.7C282.3,305.2,269.7,317.9,253.9,317.6z"/>
		
			<linearGradient id="SVGID_1_" gradientUnits="userSpaceOnUse" x1="227.5931" y1="4.8447" x2="603.1732" y2="4.8447" gradientTransform="matrix(1 0 0 -1 0 294.6452)">
			<stop  offset="0" style="stop-color:#25CE17"/>
			<stop  offset="0.2178" style="stop-color:#279215"/>
			<stop  offset="0.4828" style="stop-color:#126A21"/>
			<stop  offset="0.8224" style="stop-color:#393B39"/>
			<stop  offset="1" style="stop-color:#212121"/>
		</linearGradient>
		<path class="st1" d="M603.2,263H257c-0.6-0.1-1.3-0.1-1.9-0.1c-14.8-0.3-27.4,11.5-27.4,26.8c-0.1,15.2,12.3,27.1,27.1,27
			c0.8,0,1.5,0,2.3-0.1h320.8L603.2,263z"/>
		<g>
			<path class="st2" d="M286.2,305.8c-0.6,0-0.9-0.2-0.9-0.6c0-0.2,0-0.4,0.1-0.7l5.2-11.6l-18.1,11.6c-0.7,0.4-1.3,0.7-1.9,0.9
				c-0.6,0.2-1.1,0.3-1.5,0.3h-2.7c-0.5,0-0.9-0.1-1.4-0.3c-0.4-0.2-0.8-0.5-1.2-0.9l-9.3-11.6l-5.2,11.6c-0.4,0.8-1,1.2-1.8,1.2
				h-4.3c-0.6,0-0.9-0.2-0.9-0.6c0-0.2,0.1-0.4,0.2-0.7l12.9-28.9c0.4-0.8,1-1.2,1.8-1.2h3.6c1,0,1.8,0.4,2.4,1.2l12.9,19.5
				l31.7-19.5c1.4-0.8,2.6-1.2,3.8-1.2h3.7c0.5,0,0.8,0.2,0.8,0.6c0,0.1,0,0.2,0,0.3c0,0.1,0,0.2-0.1,0.3l-12.9,28.9
				c-0.4,0.8-1,1.2-1.8,1.2L286.2,305.8L286.2,305.8z"/>
			<path class="st2" d="M321.8,305.8c-1.6,0-3-0.2-4.2-0.8c-1.2-0.5-2.2-1.2-3.1-2.1c-0.8-0.9-1.5-1.9-1.9-3.1
				c-0.4-1.2-0.6-2.5-0.6-3.9c0-1.8,0.3-3.6,0.9-5.3c0.6-1.8,1.5-3.4,2.5-5s2.4-3.1,3.9-4.4c1.5-1.4,3.1-2.5,4.9-3.5
				s3.6-1.8,5.6-2.3s4-0.9,6-0.9h22.5c1.6,0,3.1,0.2,4.3,0.7c1.2,0.5,2.3,1.2,3.1,2c0.8,0.9,1.5,1.9,1.9,3.1s0.6,2.5,0.6,3.9
				c0,1.8-0.3,3.6-0.9,5.4c-0.6,1.8-1.5,3.4-2.6,5c-1.1,1.6-2.4,3.1-3.9,4.4s-3.1,2.5-4.9,3.5s-3.6,1.8-5.6,2.3
				c-2,0.6-3.9,0.9-5.9,0.9L321.8,305.8L321.8,305.8z M349.5,287c1-2.1,1.5-3.8,1.5-4.8c0-0.9-0.3-1.5-0.9-1.8s-1.6-0.5-2.8-0.5H341
				c-0.9,0-1.7,0.1-2.5,0.4s-1.5,0.6-2.1,1.2c-0.6,0.5-1.3,1.3-1.9,2.2c-0.6,0.9-1.2,2.1-1.8,3.5l-2.2,5c-1.2,2.6-1.8,4.6-1.8,5.9
				c0,0.9,0.3,1.5,0.8,1.9c0.5,0.4,1.3,0.6,2.2,0.6h6.3c1,0,1.8-0.1,2.6-0.4c0.8-0.3,1.6-0.8,2.3-1.4c0.7-0.6,1.4-1.5,2.1-2.6
				c0.7-1.1,1.4-2.4,2.1-3.9L349.5,287z"/>
			<path class="st2" d="M374.6,305.8c-0.5,0-0.7-0.1-0.7-0.3c0-0.1,0-0.1,0.1-0.3l11.3-25.4h-13.4c-0.4,0-0.6-0.1-0.6-0.3v-0.2
				l1.9-4.3c0.2-0.4,0.6-0.6,1.1-0.6h45.1c0.4,0,0.6,0.1,0.6,0.3c0,0.1,0,0.1,0,0.1c0,0,0,0.1,0,0.1l-1.9,4.3
				c-0.2,0.3-0.5,0.5-1.1,0.5h-13.5l-11.3,25.4c-0.2,0.4-0.5,0.6-1.1,0.6L374.6,305.8L374.6,305.8z"/>
			<path class="st2" d="M421.4,305.8c-1.6,0-3-0.2-4.2-0.8c-1.2-0.5-2.2-1.2-3.1-2.1c-0.8-0.9-1.5-1.9-1.9-3.1
				c-0.4-1.2-0.6-2.5-0.6-3.9c0-1.8,0.3-3.6,0.9-5.3c0.6-1.8,1.5-3.4,2.5-5s2.4-3.1,3.9-4.4c1.5-1.4,3.1-2.5,4.9-3.5
				s3.6-1.8,5.6-2.3s4-0.9,6-0.9h22.5c1.6,0,3.1,0.2,4.3,0.7c1.2,0.5,2.3,1.2,3.1,2c0.8,0.9,1.5,1.9,1.9,3.1s0.6,2.5,0.6,3.9
				c0,1.8-0.3,3.6-0.9,5.4c-0.6,1.8-1.5,3.4-2.6,5c-1.1,1.6-2.4,3.1-3.9,4.4s-3.1,2.5-4.9,3.5s-3.6,1.8-5.6,2.3
				c-2,0.6-3.9,0.9-5.9,0.9L421.4,305.8L421.4,305.8z M449,287c1-2.1,1.5-3.8,1.5-4.8c0-0.9-0.3-1.5-0.9-1.8s-1.6-0.5-2.8-0.5h-6.2
				c-0.9,0-1.7,0.1-2.5,0.4s-1.5,0.6-2.1,1.2c-0.6,0.5-1.3,1.3-1.9,2.2c-0.6,0.9-1.2,2.1-1.8,3.5l-2.2,5c-1.2,2.6-1.8,4.6-1.8,5.9
				c0,0.9,0.3,1.5,0.8,1.9c0.5,0.4,1.3,0.6,2.2,0.6h6.3c1,0,1.8-0.1,2.6-0.4c0.8-0.3,1.6-0.8,2.3-1.4c0.7-0.6,1.4-1.5,2.1-2.6
				c0.7-1.1,1.4-2.4,2.1-3.9L449,287z"/>
			<path class="st2" d="M502.1,305.8c-1.3,0-2.1-0.4-2.5-1.2l-7.7-14.6c-0.1-0.1-0.2-0.3-0.2-0.4c-0.1-0.1-0.1-0.3-0.1-0.5
				s0.1-0.5,0.3-0.8l0.5-1.1c0.4-0.8,1-1.2,1.8-1.2h6.2c2,0,3.5-0.4,4.5-1.2c1-0.8,1.5-1.8,1.5-2.9c0-0.6-0.3-1.1-0.8-1.5
				c-0.5-0.4-1.4-0.5-2.5-0.5h-10.2l-11,24.7c-0.4,0.8-1,1.2-1.8,1.2h-15.8c-0.6,0-0.9-0.2-0.9-0.5c0-0.2,0.1-0.4,0.2-0.7l12.9-28.9
				c0.4-0.8,1-1.2,1.8-1.2h40.2c2.1,0,3.8,0.5,5,1.5c1.2,1,1.8,2.4,1.8,4c0,1.5-0.4,2.9-1.1,4.2c-0.7,1.3-1.7,2.4-2.9,3.4
				c-1.2,1-2.7,1.8-4.4,2.4c-1.7,0.6-3.4,1.1-5.3,1.3l6.9,13c0.1,0.1,0.1,0.3,0.1,0.4c0,0.2-0.1,0.5-0.3,0.7
				c-0.2,0.2-0.5,0.3-0.9,0.3L502.1,305.8L502.1,305.8z"/>
			<path class="st2" d="M521.5,305.8c-0.5,0-0.8-0.2-0.8-0.6c0-0.2,0-0.4,0.1-0.7l1.3-2.9c0.4-0.8,1-1.2,1.8-1.2h26.2l-17-9.8
				c-1.4-0.8-2.3-1.6-2.8-2.6c-0.5-0.9-0.8-1.8-0.8-2.8c0-1.3,0.3-2.6,1-3.9c0.7-1.3,1.6-2.4,2.8-3.5s2.6-1.9,4.2-2.5
				c1.6-0.6,3.4-0.9,5.3-0.9h33.9c0.6,0,0.9,0.2,0.9,0.6c0,0.2-0.1,0.4-0.2,0.6l-1.3,2.9c-0.4,0.8-1,1.2-1.8,1.2h-25.5l17,9.8
				c1.4,0.8,2.4,1.7,2.8,2.6c0.5,0.9,0.7,1.9,0.7,2.8c0,1.3-0.3,2.6-1,3.9c-0.7,1.3-1.6,2.4-2.8,3.5s-2.6,1.9-4.2,2.5
				c-1.6,0.6-3.4,0.9-5.3,0.9L521.5,305.8L521.5,305.8z"/>
		</g>
	</g>
</g>
<text transform="matrix(1 0 0 1 72.4324 74.6127)" class="st0 st3 st4 st5">DESDE 2002</text>
</svg>
